<mxfile host="app.diagrams.net" modified="2022-06-30T01:41:53.536Z" agent="5.0 (Windows NT 10.0; Win64; x64) AppleWebKit/537.36 (KHTML, like Gecko) Chrome/103.0.0.0 Safari/537.36" etag="_le96eHbe-BfQC2m6zEy" version="20.0.4" type="github">
  <diagram id="vBt3sn6HJDN9qLxEhTRC" name="Page-1">
    <mxGraphModel dx="953" dy="525" grid="1" gridSize="10" guides="1" tooltips="1" connect="1" arrows="1" fold="1" page="1" pageScale="1" pageWidth="827" pageHeight="1169" math="0" shadow="0">
      <root>
        <mxCell id="0" />
        <mxCell id="1" parent="0" />
        <mxCell id="4FVPEQLWdU8eQu1aVHbL-1" value="感知易用性" style="ellipse;whiteSpace=wrap;html=1;" vertex="1" parent="1">
          <mxGeometry x="380" y="450" width="100" height="50" as="geometry" />
        </mxCell>
        <mxCell id="4FVPEQLWdU8eQu1aVHbL-3" value="感知有用性" style="ellipse;whiteSpace=wrap;html=1;" vertex="1" parent="1">
          <mxGeometry x="380" y="600" width="100" height="50" as="geometry" />
        </mxCell>
        <mxCell id="4FVPEQLWdU8eQu1aVHbL-4" value="外部因素" style="ellipse;whiteSpace=wrap;html=1;" vertex="1" parent="1">
          <mxGeometry x="380" y="745" width="100" height="50" as="geometry" />
        </mxCell>
        <mxCell id="4FVPEQLWdU8eQu1aVHbL-5" value="对专业满意度" style="ellipse;whiteSpace=wrap;html=1;" vertex="1" parent="1">
          <mxGeometry x="560" y="600" width="100" height="50" as="geometry" />
        </mxCell>
        <mxCell id="4FVPEQLWdU8eQu1aVHbL-6" value="就业信心" style="rounded=0;whiteSpace=wrap;html=1;" vertex="1" parent="1">
          <mxGeometry x="220" y="585" width="110" height="40" as="geometry" />
        </mxCell>
        <mxCell id="4FVPEQLWdU8eQu1aVHbL-7" value="课程设置" style="rounded=0;whiteSpace=wrap;html=1;" vertex="1" parent="1">
          <mxGeometry x="220" y="430" width="110" height="40" as="geometry" />
        </mxCell>
        <mxCell id="4FVPEQLWdU8eQu1aVHbL-10" value="专业软硬件" style="rounded=0;whiteSpace=wrap;html=1;" vertex="1" parent="1">
          <mxGeometry x="220" y="480" width="110" height="40" as="geometry" />
        </mxCell>
        <mxCell id="4FVPEQLWdU8eQu1aVHbL-12" value="学生感知" style="rounded=0;whiteSpace=wrap;html=1;" vertex="1" parent="1">
          <mxGeometry x="220" y="640" width="110" height="40" as="geometry" />
        </mxCell>
        <mxCell id="4FVPEQLWdU8eQu1aVHbL-13" value="学生预期" style="rounded=0;whiteSpace=wrap;html=1;" vertex="1" parent="1">
          <mxGeometry x="220" y="755" width="110" height="40" as="geometry" />
        </mxCell>
      </root>
    </mxGraphModel>
  </diagram>
</mxfile>
